<svg xmlns="http://www.w3.org/2000/svg" xmlns:xlink="http://www.w3.org/1999/xlink" width="100%" height="100%" viewBox="0 0 1050 540" preserveAspectRatio="xMidYMid meet" ><rect id="svgEditorBackground" x="0" y="0" width="1050" height="540" style="fill: none; stroke: none;"/><line id="e1_line" x1="364" y1="197" x2="201" y2="321" stroke="black" style="stroke-width: 1px; fill: none;"/><line id="e79_line" x1="201" y1="322" x2="240" y2="321" stroke="black" style="stroke-width: 1px; fill: none;"/><line id="e94_line" x1="239" y1="321" x2="381" y2="211" stroke="black" style="stroke-width: 1px; fill: none;"/><g id="e128_group" transform="matrix(-0.999998 -0.00191296 0.00191296 -0.999998 1021.79 250.956)"><line id="e117_line" x1="573" y1="46" x2="410" y2="170" stroke="black" style="stroke-width: 1px; fill: none;"/><line id="e118_line" x1="410" y1="171" x2="449" y2="170" stroke="black" style="stroke-width: 1px; fill: none;"/><line id="e119_line" x1="448" y1="170" x2="590" y2="60" stroke="black" style="stroke-width: 1px; fill: none;"/></g><line id="e168_line" x1="393" y1="219" x2="268" y2="319" stroke="black" style="stroke-width: 1px; fill: none;"/><line id="e221_line" x1="268" y1="319" x2="362" y2="315" stroke="black" style="stroke-width: 1px; fill: none;"/><path d="M360,315c-81,6,28,-72,52,-83" stroke="black" style="fill: none; stroke-width: 1px;" id="e395_arc3"/><g id="e577_group" transform="matrix(-0.999829 0.0185122 -0.0185122 -0.999829 1094.84 277.551)"><line id="e566_line" x1="670" y1="108" x2="545" y2="208" stroke="black" style="stroke-width: 1px; fill: none;"/><line id="e567_line" x1="545" y1="208" x2="639" y2="204" stroke="black" style="stroke-width: 1px; fill: none;"/><path d="M637,204c-81,6,28,-72,52,-83" stroke="black" style="fill: none; stroke-width: 1px;" id="e567_arc3"/></g></svg>